<svg xmlns="http://www.w3.org/2000/svg" width="240" height="120" viewBox="0 0 240 120"><rect width="100%" height="100%" fill="#DDDDDD"/><path fill="#999999" d="M56.81 67.885h5.94q.64 0 1.02.36.37.36.37.95v2.37H48.27v-1.31q0-.4.17-.84t.53-.79l7.03-7.04q.88-.9 1.57-1.72.7-.81 1.16-1.61.47-.8.72-1.63.24-.82.24-1.73 0-.83-.24-1.47-.24-.63-.68-1.06t-1.05-.65q-.62-.21-1.39-.21-.7 0-1.3.2t-1.06.56q-.47.36-.79.84t-.48 1.05q-.27.74-.7.98t-1.25.11l-2.08-.37q.24-1.66.93-2.92.69-1.25 1.72-2.09t2.37-1.27q1.33-.42 2.87-.42 1.6 0 2.93.47 1.32.47 2.27 1.34.94.86 1.47 2.08.53 1.21.53 2.7 0 1.28-.38 2.37-.37 1.09-1.01 2.08-.63.99-1.48 1.92-.84.93-1.77 1.89l-5.22 5.32q.75-.22 1.5-.34.74-.12 1.41-.12m13.16-5.04h7.04v-7.57q0-1.07.14-2.37zm10.48 0h2.91v2.29q0 .32-.21.55t-.59.23h-2.11v5.65h-3.44v-5.65h-9.76q-.4 0-.71-.25-.3-.24-.38-.61l-.42-2 10.96-14.64h3.75zm21.48-2.85q0 3.03-.64 5.26-.65 2.23-1.8 3.69-1.14 1.45-2.7 2.16-1.56.72-3.37.72t-3.35-.72q-1.54-.71-2.68-2.16-1.14-1.46-1.78-3.69t-.64-5.26q0-3.04.64-5.26.64-2.23 1.78-3.68 1.14-1.46 2.68-2.17t3.35-.71 3.37.71 2.7 2.17q1.15 1.45 1.8 3.68.64 2.22.64 5.26m-4.08 0q0-2.51-.36-4.16-.37-1.65-.99-2.62-.61-.98-1.41-1.37t-1.67-.39q-.85 0-1.64.39t-1.4 1.37q-.61.97-.97 2.62t-.36 4.16.36 4.16.97 2.63q.61.97 1.4 1.36.79.4 1.64.4.87 0 1.67-.4.8-.39 1.41-1.36.62-.98.99-2.63.36-1.65.36-4.16m29.49 6.27-2.09 2.07-5.43-5.43-5.47 5.46-2.1-2.06 5.48-5.49-5.22-5.22 2.08-2.08 5.22 5.22 5.18-5.19 2.11 2.08-5.2 5.2zm21.91 2.34h4.16v2.96h-12.8v-2.96h4.68v-13.49q0-.8.05-1.65l-3.33 2.79q-.28.22-.56.28-.28.05-.53.01-.25-.05-.44-.17t-.29-.27l-1.25-1.71 7.06-6h3.25zm15.92-.72h5.93q.64 0 1.02.36.37.36.37.95v2.37h-15.87v-1.31q0-.4.17-.84t.54-.79l7.02-7.04q.88-.9 1.58-1.72.69-.81 1.16-1.61.46-.8.71-1.63.25-.82.25-1.73 0-.83-.24-1.47-.24-.63-.68-1.06t-1.06-.65q-.62-.21-1.38-.21-.71 0-1.31.2t-1.06.56q-.47.36-.79.84t-.48 1.05q-.27.74-.7.98t-1.25.11l-2.08-.37q.24-1.66.93-2.92.69-1.25 1.72-2.09t2.37-1.27q1.33-.42 2.87-.42 1.6 0 2.93.47t2.27 1.34q.94.86 1.47 2.08.53 1.21.53 2.7 0 1.28-.38 2.37-.37 1.09-1 2.08-.64.99-1.48 1.92-.85.93-1.78 1.89l-5.22 5.32q.76-.22 1.5-.34t1.42-.12m26.56-7.89q0 3.03-.65 5.26t-1.79 3.69q-1.15 1.45-2.71 2.16-1.56.72-3.37.72-1.8 0-3.35-.72-1.54-.71-2.68-2.16-1.13-1.46-1.77-3.69t-.64-5.26q0-3.04.64-5.26.64-2.23 1.77-3.68 1.14-1.46 2.68-2.17 1.55-.71 3.35-.71 1.81 0 3.37.71t2.71 2.17q1.14 1.45 1.79 3.68.65 2.22.65 5.26m-4.08 0q0-2.51-.37-4.16t-.99-2.62q-.61-.98-1.41-1.37t-1.67-.39q-.84 0-1.64.39-.79.39-1.4 1.37-.6.97-.96 2.62t-.36 4.16.36 4.16.96 2.63q.61.97 1.4 1.36.8.4 1.64.4.87 0 1.67-.4.8-.39 1.41-1.36.62-.98.99-2.63t.37-4.16"/></svg>